<svg version="1.1" xmlns="http://www.w3.org/2000/svg" xmlns:xlink="http://www.w3.org/1999/xlink" width="193.5" height="276.57693" viewBox="0,0,193.5,276.57693"><g transform="translate(-223.25,-31.67307)"><g data-paper-data="{&quot;isPaintingLayer&quot;:true}" fill-rule="nonzero" stroke-linecap="butt" stroke-linejoin="miter" stroke-miterlimit="10" stroke-dasharray="" stroke-dashoffset="0" style="mix-blend-mode: normal"><path d="M223.5,308v-22h193v22z" fill="#ffffff" stroke="#ffffff" stroke-width="0.5"/><g stroke="none" stroke-width="0"><path d="M223.5,280.95454v-22h79v-152.63636h35v152.63636h79v22z" fill="#000000"/><path d="M302.5,106.31818h35l22.72728,122.63636l56.27272,30v22h-193v-22l56.72728,-28.63637z" fill="#ffffff"/></g><path d="M302.5,235.1049v-156.81818h35v156.81818z" fill="#ffffff" stroke="#ffffff" stroke-width="0.5"/><g fill="#ffffff" stroke="#ffffff" stroke-width="0.5"><path d="M306.62821,111.89925c0,0 -43.39097,3.27417 -43.39097,-14.59156c0,-17.86573 43.39097,-14.59156 43.39097,-14.59156z"/><path d="M333.3078,82.71613c0,0 43.39097,-3.27417 43.39097,14.59156c0,17.86573 -43.39097,14.59156 -43.39097,14.59156z"/></g><path d="M292.18754,59.80769c0,-15.40025 12.48437,-27.88462 27.88462,-27.88462c15.40025,0 27.88462,12.48437 27.88462,27.88462c0,15.40025 -12.48437,27.88462 -27.88462,27.88462c-15.40025,0 -27.88462,-12.48437 -27.88462,-27.88462z" fill="#ffffff" stroke="#ffffff" stroke-width="0.5"/></g></g></svg>